/* XPM */
static char * 10px_Line_xpm[] = {
"10 10 2 1",
" 	c None",
".	c #33C0DF",
"   ....   ",
" ........ ",
" ........ ",
"..........",
"..........",
"..........",
"..........",
" ........ ",
" ........ ",
"   ....   "};
