/* XPM */
static char * Player_xpm[] = {
"50 50 214 2",
"  	c #FFFFFF",
". 	c #FDFEFD",
"+ 	c #F6F9F6",
"@ 	c #F0F5F0",
"# 	c #FBFCFB",
"$ 	c #E5EEE5",
"% 	c #BDD5BD",
"& 	c #9AC29A",
"* 	c #B8D2B8",
"= 	c #DFEADF",
"- 	c #F7FAF7",
"; 	c #FEFEFE",
"> 	c #98C198",
", 	c #4AA34A",
"' 	c #229C22",
") 	c #3DA03D",
"! 	c #82B782",
"~ 	c #D1E1D1",
"{ 	c #F8FAF8",
"] 	c #E7EFE7",
"^ 	c #A1C5A1",
"/ 	c #3AA03A",
"( 	c #0D9A0D",
"_ 	c #0B9A0B",
": 	c #039A03",
"< 	c #259C25",
"[ 	c #8ABA8A",
"} 	c #E2ECE2",
"| 	c #E6EEE6",
"1 	c #ACCBAC",
"2 	c #56A656",
"3 	c #149A14",
"4 	c #369F36",
"5 	c #1D9B1D",
"6 	c #54A654",
"7 	c #B0CEB0",
"8 	c #EBF1EB",
"9 	c #F9FBF9",
"0 	c #E1EBE1",
"a 	c #A2C6A2",
"b 	c #1F9B1F",
"c 	c #40A140",
"d 	c #7FB57F",
"e 	c #A3C6A3",
"f 	c #53A653",
"g 	c #209C20",
"h 	c #5AA85A",
"i 	c #BAD3BA",
"j 	c #F3F7F3",
"k 	c #F1F6F1",
"l 	c #D3E2D3",
"m 	c #9DC49D",
"n 	c #0E9A0E",
"o 	c #119A11",
"p 	c #4EA44E",
"q 	c #B6D1B6",
"r 	c #EBF2EB",
"s 	c #A9CAA9",
"t 	c #189B18",
"u 	c #76B276",
"v 	c #D8E6D8",
"w 	c #73B073",
"x 	c #2F9E2F",
"y 	c #3FA03F",
"z 	c #FCFDFC",
"A 	c #DAE7DA",
"B 	c #199B19",
"C 	c #50A550",
"D 	c #E4EDE4",
"E 	c #ECF2EC",
"F 	c #B2CFB2",
"G 	c #55A655",
"H 	c #1B9B1B",
"I 	c #239C23",
"J 	c #5EA95E",
"K 	c #6EAE6E",
"L 	c #329E32",
"M 	c #399F39",
"N 	c #9DC39D",
"O 	c #B9D3B9",
"P 	c #5BA85B",
"Q 	c #299D29",
"R 	c #4BA44B",
"S 	c #AACBAA",
"T 	c #EDF3ED",
"U 	c #AFCDAF",
"V 	c #5CA85C",
"W 	c #219C21",
"X 	c #A7C8A7",
"Y 	c #90BD90",
"Z 	c #379F37",
"` 	c #389F38",
" .	c #9BC29B",
"..	c #91BE91",
"+.	c #2B9D2B",
"@.	c #169B16",
"#.	c #60AA60",
"$.	c #CDDFCD",
"%.	c #1E9B1E",
"&.	c #45A245",
"*.	c #72B072",
"=.	c #D8E5D8",
"-.	c #98C298",
";.	c #9CC39C",
">.	c #BCD4BC",
",.	c #079A07",
"'.	c #9EC49E",
").	c #EFF5EF",
"!.	c #ECF3EC",
"~.	c #52A552",
"{.	c #149B14",
"].	c #A3C7A3",
"^.	c #D4E3D4",
"/.	c #A4C7A4",
"(.	c #EEF4EE",
"_.	c #DBE7DB",
":.	c #6EAF6E",
"<.	c #6AAD6A",
"[.	c #D5E4D5",
"}.	c #0F9A0F",
"|.	c #80B680",
"1.	c #4BA34B",
"2.	c #B4D0B4",
"3.	c #F2F6F2",
"4.	c #0A9A0A",
"5.	c #A5C8A5",
"6.	c #B3CFB3",
"7.	c #2A9D2A",
"8.	c #66AC66",
"9.	c #78B378",
"0.	c #51A551",
"a.	c #BED6BE",
"b.	c #84B884",
"c.	c #64AB64",
"d.	c #D7E5D7",
"e.	c #BAD4BA",
"f.	c #61AA61",
"g.	c #2D9D2D",
"h.	c #85B885",
"i.	c #CCDECC",
"j.	c #FDFDFD",
"k.	c #56A756",
"l.	c #C6DAC6",
"m.	c #099A09",
"n.	c #C4D9C4",
"o.	c #75B175",
"p.	c #309E30",
"q.	c #359F35",
"r.	c #70AF70",
"s.	c #C8DCC8",
"t.	c #D2E2D2",
"u.	c #62AA62",
"v.	c #E3EDE3",
"w.	c #8BBB8B",
"x.	c #FBFDFB",
"y.	c #E3ECE3",
"z.	c #8EBC8E",
"A.	c #CADDCA",
"B.	c #C1D8C1",
"C.	c #B1CEB1",
"D.	c #96C096",
"E.	c #B5D0B5",
"F.	c #DDE9DD",
"G.	c #BCD5BC",
"H.	c #7AB37A",
"I.	c #DEE9DE",
"J.	c #159B15",
"K.	c #71B071",
"L.	c #FEFFFE",
"M.	c #FAFCFA",
"N.	c #ABCBAB",
"O.	c #269C26",
"P.	c #86B986",
"Q.	c #069A06",
"R.	c #42A142",
"S.	c #F4F8F4",
"T.	c #E9F0E9",
"U.	c #3EA03E",
"V.	c #A0C5A0",
"W.	c #63AB63",
"X.	c #0C9A0C",
"Y.	c #1C9B1C",
"Z.	c #77B277",
"`.	c #339E33",
" +	c #EEF3EE",
".+	c #A7C9A7",
"++	c #3FA13F",
"@+	c #AECDAE",
"#+	c #319E31",
"$+	c #44A244",
"%+	c #ADCCAD",
"&+	c #F1F5F1",
"*+	c #79B379",
"=+	c #1F9C1F",
"-+	c #97C197",
";+	c #65AB65",
">+	c #C8DBC8",
",+	c #F4F7F4",
"'+	c #83B783",
")+	c #C9DCC9",
"!+	c #F5F8F5",
"~+	c #D6E4D6",
"{+	c #D0E0D0",
"]+	c #67AC67",
"^+	c #D9E6D9",
"/+	c #C5DAC5",
"(+	c #DCE8DC",
"_+	c #C0D7C0",
":+	c #7CB47C",
"<+	c #E0EAE0",
"[+	c #CFE0CF",
"}+	c #6FAF6F",
"|+	c #94BF94",
"1+	c #F5F9F5",
"                                                                                                    ",
"                                                                                                    ",
"                                                                                                    ",
"                                                                                                    ",
"                                                  . + @ + .                                         ",
"                                                # $ % & * = - ;                                     ",
"                                              # = > , ' ) ! ~ {                                     ",
"                                            . ] ^ / ( _ : < [ } .                                   ",
"                                          # | 1 2 3 ' 4 5 5 6 7 8 .                                 ",
"                                        9 0 a , b c d e ! f g h i j                                 ",
"                                    . k l m , n o p q r 0 s p t u v #                               ",
"                                  . r q w , x 4 < y s @ z A u B C a D #                             ",
"                                . E F G H I J K L M N r   j O P Q R S T                             ",
"                            ; + = U V W H 2 X Y Z `  .8   . D ..+.@.#.$.#                           ",
"                          . E % ! C %.&.*.q =.-.Z M ;.r     { >.&.,.+.'.).                          ",
"                        . !.7 ~.%.{.G ].^.k $ ..L ) /.(.    ; _.:.o o <.[.z                         ",
"                      . r q V o }.&.s ] #   } |.I 1.2.j       3.U c 4.M 5.).                        ",
"                    . E 6.V 7.&.8.1 ] .     = 9.b 0.a.+       . 0 b.g ( c.d..                       ",
"                  z T e.f.I g.h.i.@ j.    ; _.*.5 k.l.9         { % , m., % {                       ",
"                . @ n.o.p.q.r.s.+         z t.u.o u.t.z         ; v.w.x p.w.0 .                     ",
"                x.y.& 2 J z.A.k ;         9 l.k.5 *._.;           - B.6 n &.C.j                     ",
"                . E a.D.E.F.+ ;           + G.C g H.=             ; I.u J.3 K._..                   ",
"                L.9 E 0 T M.              @ N.&.O.P.$               j N.M Q.R.2.S.                  ",
"                  L.. x..                 T.Y +.U.V.E               j.^.W.X.Y.Z.=.#                 ",
"                                        L.| ..`.U.]. +                @ .+U.{.++@+k                 ",
"                                        . I.b.#+$+%+&+                z v *+=+Q -+r                 ",
"                                        # ~ ;+g #.>+9                   ,+n.|.'+)+!+                ",
"                                        j.t.#.}.;+[.;                   . j y.v.j .                 ",
"                                        ; ~+u.n W.d.                                                ",
"                                          d.W.( W.d.                                                ",
"                                          d.W.( W.d.                                                ",
"                                          d.W.( W.d.                                                ",
"                                          d.W.( W.d.                                                ",
"                                          d.W.( W.d.                                                ",
"                                          d.W.( W.d.                                                ",
"                                          d.W.( W.d.                                                ",
"                                        ; ~+u.n W.d.                                                ",
"                                        z {+J }.]+^+                                                ",
"                                        9 /+2 Y.w (+                                                ",
"                                        - _+~.b Z.I.                                                ",
"                                        - B.k.' :+<+                                                ",
"                                        9 [+}+Z |+]                                                 ",
"                                        j.r _+a ~ 1+                                                ",
"                                          z j (.+ ;                                                 ",
"                                                                                                    ",
"                                                                                                    ",
"                                                                                                    ",
"                                                                                                    ",
"                                                                                                    ",
"                                                                                                    "};
